<svg xmlns="http://www.w3.org/2000/svg" version="1.1" viewBox="0 0 800 800"><g fill="hsl(32, 100%, 51%)" transform="matrix(2.2,0,0,2.2,-482.4000000000001,-479.4000000000001)"><circle r="2" cx="405" cy="400" opacity="0.24"></circle><circle r="2" cx="405" cy="402" opacity="0.90"></circle><circle r="2" cx="404" cy="404" opacity="0.27"></circle><circle r="2" cx="403" cy="405" opacity="0.86"></circle><circle r="2" cx="401" cy="406" opacity="0.39"></circle><circle r="2" cx="398" cy="407" opacity="0.24"></circle><circle r="2" cx="396" cy="406" opacity="0.19"></circle><circle r="2" cx="394" cy="404" opacity="0.88"></circle><circle r="2" cx="392" cy="402" opacity="0.44"></circle><circle r="2" cx="392" cy="399" opacity="0.22"></circle><circle r="2" cx="392" cy="396" opacity="0.15"></circle><circle r="2" cx="394" cy="393" opacity="0.91"></circle><circle r="2" cx="396" cy="391" opacity="0.43"></circle><circle r="2" cx="400" cy="390" opacity="0.76"></circle><circle r="2" cx="403" cy="390" opacity="0.19"></circle><circle r="2" cx="407" cy="392" opacity="0.47"></circle><circle r="2" cx="409" cy="395" opacity="0.99"></circle><circle r="2" cx="411" cy="398" opacity="0.42"></circle><circle r="2" cx="411" cy="402" opacity="0.98"></circle><circle r="2" cx="410" cy="406" opacity="0.70"></circle><circle r="2" cx="407" cy="410" opacity="0.18"></circle><circle r="2" cx="404" cy="412" opacity="0.80"></circle><circle r="2" cx="399" cy="413" opacity="0.55"></circle><circle r="2" cx="395" cy="412" opacity="0.11"></circle><circle r="2" cx="390" cy="410" opacity="0.20"></circle><circle r="2" cx="387" cy="406" opacity="0.44"></circle><circle r="2" cx="386" cy="401" opacity="0.61"></circle><circle r="2" cx="386" cy="396" opacity="0.48"></circle><circle r="2" cx="388" cy="391" opacity="0.99"></circle><circle r="2" cx="392" cy="387" opacity="0.40"></circle><circle r="2" cx="397" cy="385" opacity="0.16"></circle><circle r="2" cx="403" cy="384" opacity="0.18"></circle><circle r="2" cx="408" cy="386" opacity="0.90"></circle><circle r="2" cx="413" cy="389" opacity="0.94"></circle><circle r="2" cx="416" cy="394" opacity="0.38"></circle><circle r="2" cx="418" cy="401" opacity="0.67"></circle><circle r="2" cx="417" cy="407" opacity="0.22"></circle><circle r="2" cx="413" cy="413" opacity="0.79"></circle><circle r="2" cx="408" cy="417" opacity="0.77"></circle><circle r="2" cx="402" cy="419" opacity="0.42"></circle><circle r="2" cx="395" cy="419" opacity="0.82"></circle><circle r="2" cx="388" cy="416" opacity="0.61"></circle><circle r="2" cx="383" cy="411" opacity="0.21"></circle><circle r="2" cx="380" cy="405" opacity="0.25"></circle><circle r="2" cx="379" cy="397" opacity="0.72"></circle><circle r="2" cx="381" cy="390" opacity="0.80"></circle><circle r="2" cx="386" cy="384" opacity="0.93"></circle><circle r="2" cx="392" cy="379" opacity="0.39"></circle><circle r="2" cx="400" cy="378" opacity="0.96"></circle><circle r="2" cx="408" cy="379" opacity="0.91"></circle><circle r="2" cx="415" cy="383" opacity="0.66"></circle><circle r="2" cx="421" cy="389" opacity="0.70"></circle><circle r="2" cx="424" cy="397" opacity="0.17"></circle><circle r="2" cx="423" cy="406" opacity="0.57"></circle><circle r="2" cx="420" cy="414" opacity="0.50"></circle><circle r="2" cx="414" cy="420" opacity="0.47"></circle><circle r="2" cx="406" cy="424" opacity="0.59"></circle><circle r="2" cx="397" cy="425" opacity="0.21"></circle><circle r="2" cx="389" cy="423" opacity="0.75"></circle><circle r="2" cx="381" cy="418" opacity="0.96"></circle><circle r="2.5" cx="375" cy="410" opacity="0.95"></circle><circle r="2.5" cx="373" cy="401" opacity="0.19"></circle><circle r="2.5" cx="374" cy="391" opacity="0.74"></circle><circle r="2.5" cx="379" cy="382" opacity="0.88"></circle><circle r="2.5" cx="386" cy="376" opacity="0.31"></circle><circle r="2.5" cx="395" cy="372" opacity="0.31"></circle><circle r="2.5" cx="406" cy="372" opacity="0.54"></circle><circle r="2.5" cx="415" cy="375" opacity="0.57"></circle><circle r="2.5" cx="423" cy="382" opacity="0.73"></circle><circle r="2.5" cx="429" cy="391" opacity="0.17"></circle><circle r="2.5" cx="430" cy="402" opacity="0.27"></circle><circle r="2.5" cx="428" cy="413" opacity="0.61"></circle><circle r="2.5" cx="422" cy="422" opacity="0.93"></circle><circle r="2.5" cx="413" cy="429" opacity="0.97"></circle><circle r="2.5" cx="402" cy="432" opacity="0.69"></circle><circle r="2.5" cx="391" cy="431" opacity="0.59"></circle><circle r="2.5" cx="380" cy="426" opacity="0.94"></circle><circle r="2.5" cx="372" cy="417" opacity="0.90"></circle><circle r="2.5" cx="368" cy="406" opacity="0.17"></circle><circle r="2.5" cx="367" cy="394" opacity="0.50"></circle><circle r="2.5" cx="371" cy="383" opacity="0.96"></circle><circle r="2.5" cx="378" cy="374" opacity="0.32"></circle><circle r="2.5" cx="389" cy="367" opacity="0.75"></circle><circle r="2.5" cx="401" cy="365" opacity="0.51"></circle><circle r="2.5" cx="414" cy="367" opacity="0.26"></circle><circle r="2.5" cx="424" cy="374" opacity="0.67"></circle><circle r="2.5" cx="432" cy="384" opacity="0.64"></circle><circle r="2.5" cx="436" cy="397" opacity="0.86"></circle><circle r="2.5" cx="435" cy="410" opacity="0.19"></circle><circle r="2.5" cx="430" cy="422" opacity="0.60"></circle><circle r="2.5" cx="421" cy="431" opacity="0.59"></circle><circle r="2.5" cx="408" cy="437" opacity="0.39"></circle><circle r="2.5" cx="395" cy="438" opacity="0.32"></circle><circle r="2.5" cx="382" cy="434" opacity="0.61"></circle><circle r="2.5" cx="371" cy="426" opacity="0.63"></circle><circle r="2.5" cx="363" cy="414" opacity="0.37"></circle><circle r="2.5" cx="360" cy="400" opacity="0.22"></circle><circle r="2.5" cx="363" cy="386" opacity="0.19"></circle><circle r="2.5" cx="370" cy="373" opacity="0.28"></circle><circle r="2.5" cx="381" cy="364" opacity="0.53"></circle><circle r="2.5" cx="395" cy="359" opacity="0.29"></circle><circle r="2.5" cx="409" cy="360" opacity="0.12"></circle><circle r="2.5" cx="423" cy="365" opacity="0.42"></circle><circle r="2.5" cx="434" cy="376" opacity="0.89"></circle><circle r="2.5" cx="441" cy="389" opacity="0.91"></circle><circle r="2.5" cx="443" cy="404" opacity="0.62"></circle><circle r="2.5" cx="439" cy="419" opacity="0.84"></circle><circle r="2.5" cx="430" cy="432" opacity="0.29"></circle><circle r="2.5" cx="417" cy="441" opacity="0.83"></circle><circle r="2.5" cx="401" cy="444" opacity="0.90"></circle><circle r="2.5" cx="386" cy="442" opacity="0.86"></circle><circle r="2.5" cx="371" cy="435" opacity="0.97"></circle><circle r="2.5" cx="361" cy="423" opacity="0.55"></circle><circle r="2.5" cx="355" cy="407" opacity="0.47"></circle><circle r="2.5" cx="355" cy="391" opacity="0.52"></circle><circle r="2.5" cx="361" cy="375" opacity="0.61"></circle><circle r="2.5" cx="372" cy="363" opacity="0.32"></circle><circle r="2.5" cx="386" cy="355" opacity="0.36"></circle><circle r="2.5" cx="403" cy="353" opacity="0.72"></circle><circle r="2.5" cx="420" cy="356" opacity="0.46"></circle><circle r="2.5" cx="434" cy="366" opacity="0.87"></circle><circle r="2.5" cx="444" cy="380" opacity="0.22"></circle><circle r="2.5" cx="449" cy="397" opacity="0.89"></circle><circle r="2.5" cx="447" cy="414" opacity="0.58"></circle><circle r="2.5" cx="439" cy="430" opacity="0.32"></circle><circle r="2.5" cx="426" cy="443" opacity="0.12"></circle><circle r="3" cx="410" cy="449" opacity="0.81"></circle><circle r="3" cx="392" cy="450" opacity="0.24"></circle><circle r="3" cx="374" cy="444" opacity="0.60"></circle><circle r="3" cx="360" cy="433" opacity="0.36"></circle><circle r="3" cx="351" cy="416" opacity="0.44"></circle><circle r="3" cx="348" cy="398" opacity="0.44"></circle><circle r="3" cx="352" cy="380" opacity="0.31"></circle><circle r="3" cx="362" cy="364" opacity="0.78"></circle><circle r="3" cx="377" cy="352" opacity="0.24"></circle><circle r="3" cx="395" cy="347" opacity="0.65"></circle><circle r="3" cx="414" cy="348" opacity="0.99"></circle><circle r="3" cx="432" cy="356" opacity="0.75"></circle><circle r="3" cx="446" cy="370" opacity="0.72"></circle><circle r="3" cx="454" cy="388" opacity="0.91"></circle><circle r="3" cx="455" cy="407" opacity="0.42"></circle><circle r="3" cx="449" cy="426" opacity="0.27"></circle><circle r="3" cx="437" cy="442" opacity="0.98"></circle><circle r="3" cx="420" cy="453" opacity="0.93"></circle><circle r="3" cx="400" cy="457" opacity="0.28"></circle><circle r="3" cx="380" cy="453" opacity="0.54"></circle><circle r="3" cx="362" cy="443" opacity="0.64"></circle><circle r="3" cx="349" cy="427" opacity="0.92"></circle><circle r="3" cx="342" cy="407" opacity="0.74"></circle><circle r="3" cx="343" cy="386" opacity="0.44"></circle><circle r="3" cx="351" cy="367" opacity="0.77"></circle><circle r="3" cx="366" cy="352" opacity="0.73"></circle><circle r="3" cx="385" cy="342" opacity="0.58"></circle><circle r="3" cx="406" cy="340" opacity="0.77"></circle><circle r="3" cx="427" cy="346" opacity="0.95"></circle><circle r="3" cx="445" cy="359" opacity="0.16"></circle><circle r="3" cx="457" cy="377" opacity="0.84"></circle><circle r="3" cx="461" cy="398" opacity="0.53"></circle><circle r="3" cx="459" cy="420" opacity="0.87"></circle><circle r="3" cx="448" cy="440" opacity="0.52"></circle><circle r="3" cx="431" cy="454" opacity="0.68"></circle><circle r="3" cx="410" cy="462" opacity="0.66"></circle><circle r="3" cx="387" cy="462" opacity="0.77"></circle><circle r="3" cx="366" cy="454" opacity="0.82"></circle><circle r="3" cx="349" cy="439" opacity="0.63"></circle><circle r="3" cx="338" cy="418" opacity="0.21"></circle><circle r="3" cx="335" cy="395" opacity="0.43"></circle><circle r="3" cx="341" cy="373" opacity="0.28"></circle><circle r="3" cx="354" cy="353" opacity="0.78"></circle><circle r="3" cx="373" cy="340" opacity="0.46"></circle><circle r="3" cx="396" cy="334" opacity="0.57"></circle><circle r="3" cx="420" cy="336" opacity="0.47"></circle><circle r="3" cx="441" cy="347" opacity="0.63"></circle><circle r="3" cx="457" cy="365" opacity="0.35"></circle><circle r="3" cx="466" cy="387" opacity="0.39"></circle><circle r="3" cx="467" cy="411" opacity="0.64"></circle><circle r="3" cx="459" cy="434" opacity="0.75"></circle><circle r="3" cx="443" cy="453" opacity="0.14"></circle><circle r="3" cx="422" cy="466" opacity="0.26"></circle><circle r="3" cx="397" cy="469" opacity="0.51"></circle><circle r="3" cx="373" cy="464" opacity="0.21"></circle><circle r="3" cx="352" cy="451" opacity="0.76"></circle><circle r="3" cx="337" cy="431" opacity="0.29"></circle><circle r="3" cx="329" cy="407" opacity="0.78"></circle><circle r="3" cx="331" cy="381" opacity="0.28"></circle><circle r="3" cx="342" cy="358" opacity="0.60"></circle><circle r="3" cx="360" cy="340" opacity="0.81"></circle><circle r="3" cx="384" cy="329" opacity="0.13"></circle><circle r="3" cx="410" cy="328" opacity="0.61"></circle><circle r="3" cx="435" cy="336" opacity="0.49"></circle><circle r="3" cx="455" cy="352" opacity="0.22"></circle><circle r="3" cx="469" cy="374" opacity="0.82"></circle><circle r="3.5" cx="474" cy="400" opacity="0.88"></circle><circle r="3.5" cx="470" cy="427" opacity="0.97"></circle><circle r="3.5" cx="456" cy="450" opacity="0.33"></circle><circle r="3.5" cx="435" cy="466" opacity="0.77"></circle><circle r="3.5" cx="409" cy="475" opacity="0.26"></circle><circle r="3.5" cx="382" cy="474" opacity="0.77"></circle><circle r="3.5" cx="357" cy="463" opacity="0.26"></circle><circle r="3.5" cx="337" cy="444" opacity="0.75"></circle><circle r="3.5" cx="326" cy="420" opacity="0.74"></circle><circle r="3.5" cx="323" cy="392" opacity="0.48"></circle><circle r="3.5" cx="330" cy="365" opacity="0.59"></circle><circle r="3.5" cx="347" cy="343" opacity="0.72"></circle><circle r="3.5" cx="370" cy="327" opacity="0.43"></circle><circle r="3.5" cx="398" cy="321" opacity="0.79"></circle><circle r="3.5" cx="426" cy="325" opacity="0.67"></circle><circle r="3.5" cx="451" cy="339" opacity="0.94"></circle><circle r="3.5" cx="469" cy="360" opacity="0.62"></circle><circle r="3.5" cx="479" cy="387" opacity="0.20"></circle><circle r="3.5" cx="479" cy="416" opacity="0.82"></circle><circle r="3.5" cx="469" cy="443" opacity="0.39"></circle><circle r="3.5" cx="449" cy="465" opacity="0.81"></circle><circle r="3.5" cx="423" cy="478" opacity="0.35"></circle><circle r="3.5" cx="394" cy="482" opacity="0.35"></circle><circle r="3.5" cx="366" cy="475" opacity="0.97"></circle><circle r="3.5" cx="341" cy="458" opacity="0.23"></circle><circle r="3.5" cx="324" cy="434" opacity="0.86"></circle><circle r="3.5" cx="317" cy="405" opacity="0.65"></circle><circle r="3.5" cx="320" cy="375" opacity="0.92"></circle><circle r="3.5" cx="333" cy="348" opacity="0.46"></circle><circle r="3.5" cx="356" cy="328" opacity="0.54"></circle><circle r="3.5" cx="384" cy="317" opacity="0.77"></circle><circle r="3.5" cx="414" cy="316" opacity="0.40"></circle><circle r="3.5" cx="443" cy="326" opacity="0.94"></circle><circle r="3.5" cx="467" cy="346" opacity="0.61"></circle><circle r="3.5" cx="482" cy="373" opacity="0.94"></circle><circle r="3.5" cx="487" cy="403" opacity="0.77"></circle><circle r="3.5" cx="480" cy="434" opacity="0.40"></circle><circle r="3.5" cx="463" cy="460" opacity="0.21"></circle><circle r="3.5" cx="438" cy="479" opacity="0.73"></circle><circle r="3.5" cx="408" cy="488" opacity="0.50"></circle><circle r="3.5" cx="377" cy="485" opacity="0.18"></circle><circle r="3.5" cx="348" cy="472" opacity="0.42"></circle><circle r="3.5" cx="326" cy="449" opacity="0.53"></circle><circle r="3.5" cx="313" cy="420" opacity="0.16"></circle><circle r="3.5" cx="311" cy="388" opacity="0.26"></circle><circle r="3.5" cx="321" cy="357" opacity="0.80"></circle><circle r="3.5" cx="341" cy="331" opacity="0.56"></circle><circle r="3.5" cx="368" cy="315" opacity="0.53"></circle><circle r="3.5" cx="401" cy="309" opacity="0.16"></circle><circle r="3.5" cx="433" cy="314" opacity="0.69"></circle><circle r="3.5" cx="461" cy="331" opacity="0.65"></circle><circle r="3.5" cx="482" cy="357" opacity="0.25"></circle><circle r="3.5" cx="492" cy="388" opacity="0.33"></circle><circle r="3.5" cx="491" cy="422" opacity="0.71"></circle><circle r="3.5" cx="477" cy="452" opacity="0.98"></circle><circle r="3.5" cx="454" cy="477" opacity="0.50"></circle><circle r="3.5" cx="424" cy="491" opacity="0.52"></circle><circle r="3.5" cx="390" cy="494" opacity="0.80"></circle><circle r="3.5" cx="357" cy="485" opacity="0.25"></circle><circle r="3.5" cx="330" cy="465" opacity="0.46"></circle><circle r="3.5" cx="311" cy="436" opacity="0.37"></circle><circle r="3.5" cx="304" cy="403" opacity="0.81"></circle><circle r="3.5" cx="309" cy="368" opacity="0.54"></circle><circle r="3.5" cx="326" cy="338" opacity="0.58"></circle><circle r="3.5" cx="352" cy="316" opacity="0.15"></circle><circle r="3.5" cx="385" cy="304" opacity="0.28"></circle><circle r="4" cx="420" cy="304" opacity="0.81"></circle><circle r="4" cx="452" cy="317" opacity="0.14"></circle><circle r="4" cx="479" cy="341" opacity="0.85"></circle><circle r="4" cx="495" cy="372" opacity="0.60"></circle><circle r="4" cx="499" cy="407" opacity="0.44"></circle><circle r="4" cx="491" cy="442" opacity="0.25"></circle><circle r="4" cx="470" cy="471" opacity="0.29"></circle><circle r="4" cx="441" cy="492" opacity="0.44"></circle><circle r="4" cx="406" cy="501" opacity="0.77"></circle><circle r="4" cx="370" cy="497" opacity="0.64"></circle><circle r="4" cx="338" cy="480" opacity="0.19"></circle><circle r="4" cx="313" cy="453" opacity="0.30"></circle><circle r="4" cx="300" cy="419" opacity="0.77"></circle><circle r="4" cx="299" cy="383" opacity="0.12"></circle><circle r="4" cx="311" cy="348" opacity="0.53"></circle><circle r="4" cx="335" cy="320" opacity="0.68"></circle><circle r="4" cx="367" cy="302" opacity="0.15"></circle><circle r="4" cx="404" cy="296" opacity="0.98"></circle><circle r="4" cx="441" cy="304" opacity="0.62"></circle><circle r="4" cx="472" cy="324" opacity="0.70"></circle><circle r="4" cx="495" cy="354" opacity="0.71"></circle><circle r="4" cx="505" cy="390" opacity="0.57"></circle><circle r="4" cx="502" cy="428" opacity="0.78"></circle><circle r="4" cx="486" cy="462" opacity="0.65"></circle><circle r="4" cx="459" cy="489" opacity="0.27"></circle><circle r="4" cx="424" cy="504" opacity="0.33"></circle><circle r="4" cx="385" cy="506" opacity="0.20"></circle><circle r="4" cx="349" cy="495" opacity="0.74"></circle><circle r="4" cx="318" cy="471" opacity="0.93"></circle><circle r="4" cx="298" cy="437" opacity="0.14"></circle><circle r="4" cx="291" cy="399" opacity="0.79"></circle><circle r="4" cx="298" cy="361" opacity="0.24"></circle><circle r="4" cx="318" cy="327" opacity="0.86"></circle><circle r="4" cx="349" cy="303" opacity="0.29"></circle><circle r="4" cx="386" cy="291" opacity="0.83"></circle><circle r="4" cx="426" cy="293" opacity="0.20"></circle><circle r="4" cx="462" cy="308" opacity="0.57"></circle><circle r="4" cx="491" cy="336" opacity="0.45"></circle><circle r="4" cx="508" cy="372" opacity="0.96"></circle><circle r="4" cx="511" cy="412" opacity="0.48"></circle><circle r="4" cx="500" cy="450" opacity="0.68"></circle><circle r="4" cx="476" cy="483" opacity="0.51"></circle><circle r="4" cx="442" cy="505" opacity="0.99"></circle><circle r="4" cx="403" cy="513" opacity="0.69"></circle><circle r="4" cx="363" cy="507" opacity="0.34"></circle><circle r="4" cx="327" cy="488" opacity="0.75"></circle><circle r="4" cx="300" cy="456" opacity="0.95"></circle><circle r="4" cx="287" cy="418" opacity="0.44"></circle><circle r="4" cx="287" cy="377" opacity="0.98"></circle><circle r="4" cx="302" cy="338" opacity="0.20"></circle><circle r="4" cx="330" cy="308" opacity="0.77"></circle><circle r="4" cx="367" cy="288" opacity="0.77"></circle><circle r="4" cx="409" cy="284" opacity="0.39"></circle><circle r="4" cx="449" cy="294" opacity="0.91"></circle><circle r="4" cx="484" cy="318" opacity="0.54"></circle><circle r="4" cx="508" cy="352" opacity="0.47"></circle><circle r="4" cx="518" cy="393" opacity="0.75"></circle><circle r="4" cx="513" cy="435" opacity="0.52"></circle><circle r="4" cx="494" cy="473" opacity="0.35"></circle><circle r="4" cx="462" cy="502" opacity="0.35"></circle><circle r="4" cx="422" cy="517" opacity="0.20"></circle><circle r="4" cx="380" cy="518" opacity="0.72"></circle><circle r="4" cx="339" cy="504" opacity="0.13"></circle><circle r="4" cx="306" cy="476" opacity="0.32"></circle><circle r="4" cx="285" cy="438" opacity="0.29"></circle><circle r="4" cx="279" cy="395" opacity="0.21"></circle><circle r="4.5" cx="288" cy="353" opacity="0.59"></circle><circle r="4.5" cx="312" cy="316" opacity="0.20"></circle><circle r="4.5" cx="347" cy="290" opacity="0.87"></circle><circle r="4.5" cx="389" cy="278" opacity="0.81"></circle><circle r="4.5" cx="433" cy="281" opacity="0.54"></circle><circle r="4.5" cx="473" cy="300" opacity="0.56"></circle><circle r="4.5" cx="504" cy="332" opacity="0.93"></circle><circle r="4.5" cx="521" cy="373" opacity="0.61"></circle><circle r="4.5" cx="523" cy="417" opacity="0.59"></circle><circle r="4.5" cx="510" cy="460" opacity="0.78"></circle><circle r="4.5" cx="482" cy="495" opacity="0.55"></circle><circle r="4.5" cx="443" cy="518" opacity="0.32"></circle><circle r="4.5" cx="399" cy="526" opacity="0.99"></circle><circle r="4.5" cx="354" cy="518" opacity="0.38"></circle><circle r="4.5" cx="316" cy="495" opacity="0.11"></circle><circle r="4.5" cx="287" cy="459" opacity="0.77"></circle><circle r="4.5" cx="274" cy="416" opacity="0.42"></circle><circle r="4.5" cx="276" cy="370" opacity="0.79"></circle><circle r="4.5" cx="294" cy="328" opacity="0.13"></circle><circle r="4.5" cx="326" cy="295" opacity="0.57"></circle><circle r="4.5" cx="368" cy="275" opacity="0.86"></circle><circle r="4.5" cx="414" cy="272" opacity="0.90"></circle><circle r="4.5" cx="458" cy="284" opacity="0.84"></circle><circle r="4.5" cx="496" cy="312" opacity="0.83"></circle><circle r="4.5" cx="521" cy="351" opacity="0.57"></circle><circle r="4.5" cx="531" cy="397" opacity="0.38"></circle><circle r="4.5" cx="524" cy="443" opacity="0.42"></circle><circle r="4.5" cx="501" cy="484" opacity="0.86"></circle><circle r="4.5" cx="465" cy="515" opacity="0.88"></circle><circle r="4.5" cx="420" cy="531" opacity="0.15"></circle><circle r="4.5" cx="373" cy="530" opacity="0.47"></circle><circle r="4.5" cx="329" cy="512" opacity="0.93"></circle><circle r="4.5" cx="294" cy="480" opacity="0.11"></circle><circle r="4.5" cx="272" cy="438" opacity="0.18"></circle><circle r="4.5" cx="266" cy="390" opacity="0.48"></circle><circle r="4.5" cx="278" cy="343" opacity="0.14"></circle><circle r="4.5" cx="306" cy="304" opacity="0.41"></circle><circle r="4.5" cx="345" cy="277" opacity="0.92"></circle><circle r="4.5" cx="392" cy="265" opacity="0.51"></circle><circle r="4.5" cx="441" cy="271" opacity="0.73"></circle><circle r="4.5" cx="484" cy="293" opacity="0.61"></circle><circle r="4.5" cx="517" cy="329" opacity="0.50"></circle><circle r="4.5" cx="534" cy="375" opacity="0.85"></circle><circle r="4.5" cx="535" cy="424" opacity="0.28"></circle><circle r="4.5" cx="518" cy="470" opacity="0.22"></circle><circle r="4.5" cx="486" cy="507" opacity="0.39"></circle><circle r="4.5" cx="443" cy="531" opacity="0.82"></circle><circle r="4.5" cx="394" cy="538" opacity="0.62"></circle><circle r="4.5" cx="346" cy="528" opacity="0.73"></circle><circle r="4.5" cx="304" cy="501" opacity="0.36"></circle><circle r="4.5" cx="274" cy="461" opacity="0.71"></circle><circle r="4.5" cx="261" cy="412" opacity="0.50"></circle><circle r="4.5" cx="265" cy="362" opacity="0.33"></circle><circle r="4.5" cx="286" cy="317" opacity="0.41"></circle><circle r="4.5" cx="323" cy="282" opacity="0.79"></circle><circle r="4.5" cx="369" cy="262" opacity="0.77"></circle><circle r="4.5" cx="420" cy="260" opacity="0.54"></circle><circle r="4.5" cx="468" cy="275" opacity="0.14"></circle><circle r="4.5" cx="508" cy="307" opacity="0.92"></circle><circle r="4.5" cx="534" cy="351" opacity="0.99"></circle><circle r="4.5" cx="543" cy="401" opacity="0.73"></circle><circle r="4.5" cx="534" cy="452" opacity="0.40"></circle><circle r="4.5" cx="507" cy="496" opacity="0.41"></circle><circle r="4.5" cx="467" cy="528" opacity="0.29"></circle><circle r="4.5" cx="417" cy="544" opacity="0.64"></circle><circle r="4.5" cx="366" cy="541" opacity="0.18"></circle><circle r="5" cx="318" cy="520" opacity="0.99"></circle><circle r="5" cx="281" cy="484" opacity="0.56"></circle><circle r="5" cx="258" cy="436" opacity="0.14"></circle><circle r="5" cx="254" cy="384" opacity="0.36"></circle><circle r="5" cx="269" cy="334" opacity="0.44"></circle><circle r="5" cx="300" cy="292" opacity="0.20"></circle><circle r="5" cx="345" cy="263" opacity="0.27"></circle><circle r="5" cx="397" cy="252" opacity="0.32"></circle><circle r="5" cx="449" cy="260" opacity="0.47"></circle><circle r="5" cx="495" cy="286" opacity="0.88"></circle><circle r="5" cx="530" cy="327" opacity="0.28"></circle><circle r="5" cx="548" cy="377" opacity="0.53"></circle><circle r="5" cx="547" cy="431" opacity="0.27"></circle><circle r="5" cx="527" cy="481" opacity="0.31"></circle><circle r="5" cx="490" cy="520" opacity="0.37"></circle><circle r="5" cx="442" cy="545" opacity="0.12"></circle><circle r="5" cx="389" cy="551" opacity="0.49"></circle><circle r="5" cx="336" cy="537" opacity="0.47"></circle><circle r="5" cx="291" cy="506" opacity="0.66"></circle><circle r="5" cx="261" cy="461" opacity="0.95"></circle><circle r="5" cx="248" cy="408" opacity="0.14"></circle><circle r="5" cx="254" cy="354" opacity="0.65"></circle><circle r="5" cx="279" cy="305" opacity="0.95"></circle><circle r="5" cx="320" cy="269" opacity="0.83"></circle><circle r="5" cx="372" cy="249" opacity="0.69"></circle><circle r="5" cx="427" cy="248" opacity="0.70"></circle><circle r="5" cx="479" cy="267" opacity="0.99"></circle><circle r="5" cx="521" cy="303" opacity="0.35"></circle><circle r="5" cx="548" cy="352" opacity="0.97"></circle><circle r="5" cx="556" cy="407" opacity="0.57"></circle><circle r="5" cx="544" cy="461" opacity="0.24"></circle><circle r="5" cx="513" cy="508" opacity="0.34"></circle><circle r="5" cx="468" cy="541" opacity="0.46"></circle></g></svg>